<svg xmlns="http://www.w3.org/2000/svg" width="53.445" height="45.162" viewBox="0 0 53.445 45.162">
  <g id="그룹_171" data-name="그룹 171" transform="translate(-160 168)">
    <g id="_8a96d90a19af87a199881bf9a5474ad1" data-name="8a96d90a19af87a199881bf9a5474ad1" transform="translate(160 -168)">
      <g id="그룹_170" data-name="그룹 170" transform="translate(0 0)">
        <path id="패스_902" data-name="패스 902" d="M33.016-424.848c1.472.393,1.988.785,5.043,3.84,3.62,3.632,3.791,3.927,3.8,6.663a6.907,6.907,0,0,1-.7,3.521,6.083,6.083,0,0,1-4.368,3.374c-.626.1-.822.172-.8.307a35.144,35.144,0,0,0,3.693,2.294c7.423,4.295,11.46,6.835,12.76,8.025a9.935,9.935,0,0,1,2.736,4.417,6.951,6.951,0,0,1,.344,2.761,6.191,6.191,0,0,1-.368,2.785l-.368,1.08h3.08c3.546,0,3.878.062,4.7.9a2.878,2.878,0,0,1,.736,2.957,3.645,3.645,0,0,1-1.89,1.89c-.38.111-3.583.147-13.178.147-14.062,0-13.166.049-13.828-.81a1.868,1.868,0,0,1-.159-2.012,6.743,6.743,0,0,1,2.172-2.233l.651-.368-.306-.589a3.628,3.628,0,0,0-1.5-1.669,5.958,5.958,0,0,0-1.8-.172H32.059l-.037,3.3c-.037,3.116-.049,3.325-.294,3.644a3.366,3.366,0,0,1-.589.589c-.319.245-.515.257-4.467.294-3.6.025-4.209.013-4.663-.172a1.949,1.949,0,0,1-.847-2.9,6.358,6.358,0,0,1,3.755-2.626c.527-.086.527-.086.466-.527-.049-.245-.147-1.031-.221-1.767L25-389.216l-.576-.38a9.733,9.733,0,0,1-1.435-1.264,9.644,9.644,0,0,1,.332-13.73l.871-.822v-3.927H20.967a21.5,21.5,0,0,1-4-.184,8.925,8.925,0,0,1-3.46-1.877,19.651,19.651,0,0,1-3.08-4.638c-.552-1.141-.564-1.534-.062-2.258.479-.7.933-.859,2.54-.859a8.578,8.578,0,0,0,3.657-.638,15.994,15.994,0,0,0,2.552-2.184c2.1-2.024,2.822-2.528,4.159-2.883A60.09,60.09,0,0,1,33.016-424.848Zm-.945,8.393.037,4.233.332.638a5.348,5.348,0,0,0,.8,1.092,3.939,3.939,0,0,0,5.3.135c.994-.957,1.362-1.988,1.362-3.89,0-2.123.025-2.086-3.055-5.19-2.65-2.675-3.251-3.166-4.221-3.46l-.515-.147-.037,1.178C32.046-421.216,32.046-418.787,32.071-416.455Zm-9.043-6.258a16.013,16.013,0,0,0-2.6,2.221c-1.767,1.73-2.086,1.988-3.006,2.417a8.492,8.492,0,0,1-2.7.822.724.724,0,0,0-.663.5,3.072,3.072,0,0,1-.663.81l-.454.393.724,1.19a5.537,5.537,0,0,0,2.662,2.54l.92.454,3.251.037c2.834.037,3.313.012,3.791-.172a3.186,3.186,0,0,0,1.62-1.4c.147-.368.159-.368,1.19-.368s1.031,0,.957.27a5.7,5.7,0,0,1-1.3,2.184l-.6.6-.012,2.92-.013,2.92-.846.712a7.68,7.68,0,0,0-3.055,5.976,7.833,7.833,0,0,0,3.681,6.7l.933.65.344,2.859c.184,1.571.368,2.994.4,3.166.061.307.037.319-1.092.454a4.86,4.86,0,0,0-3.1,1.215,2.762,2.762,0,0,0-.552.675,28.049,28.049,0,0,0,3.62.111h3.62v-9.816h1.963v1.963h1.386a9.876,9.876,0,0,1,1.951.159l.54.172.147-1.264a10.236,10.236,0,0,1,1.252-3.988,8.123,8.123,0,0,1,1.5-1.939,4.537,4.537,0,0,1,1.325,1.239,3.73,3.73,0,0,1-.515.748,9.019,9.019,0,0,0-1.46,3.031,10.444,10.444,0,0,0,.049,3.8,12.67,12.67,0,0,0,.871,2.1l.676,1.314-.933.393a6.348,6.348,0,0,0-2.479,1.571,2.606,2.606,0,0,0-.258.442c0,.037,2.356.074,5.239.074,5.963,0,6.319-.049,8-.871a7.87,7.87,0,0,0,4.123-8.528,7.987,7.987,0,0,0-2.908-4.65c-1.325-.994-7.116-4.5-14.417-8.712l-2.123-1.227v-1.877l-.675-.332a6.43,6.43,0,0,1-2.491-2.368c-.736-1.374-.761-1.632-.761-7.424v-5.251l-3.227.037C23.727-423.02,23.629-423.007,23.028-422.713Zm30.184,39.4a6.469,6.469,0,0,1-.957.982l-.614.479h9.252l.294-.306a.957.957,0,0,0,.306-.675.955.955,0,0,0-.306-.675l-.294-.307H53.556Z" transform="translate(-10 425.052)" fill="#fff"/>
        <path id="패스_903" data-name="패스 903" d="M732.367-334.216c.479.478.5.54.442,1.067a1.362,1.362,0,0,1-1.435,1.337,1.085,1.085,0,0,1-1.006-.4,1.084,1.084,0,0,1-.4-1.006,1.361,1.361,0,0,1,1.337-1.435C731.827-334.719,731.888-334.694,732.367-334.216Z" transform="translate(-718.652 339.61)" fill="#fff"/>
      </g>
    </g>
  </g>
</svg>
