<svg xmlns="http://www.w3.org/2000/svg" width="38" height="38" viewBox="0 0 38 38">
  <g id="그룹_254" data-name="그룹 254" transform="translate(-132 -771)">
    <g id="emotion-fill" transform="translate(137 771)">
      <path id="패스_926" data-name="패스 926" d="M0,0H28V28H0Z" fill="none"/>
      <path id="패스_927" data-name="패스 927" d="M14,26A12,12,0,1,1,26,14,12,12,0,0,1,14,26ZM9.2,15.2a4.8,4.8,0,1,0,9.6,0Zm0-2.4A1.8,1.8,0,1,0,7.4,11,1.8,1.8,0,0,0,9.2,12.8Zm9.6,0A1.8,1.8,0,1,0,17,11,1.8,1.8,0,0,0,18.8,12.8Z" fill="#fff"/>
    </g>
    <text id="마이페이지" transform="translate(151 807)" fill="#fff" font-size="8" font-family="NanumSquareR, NanumSquare"><tspan x="-18.2" y="0">마이페이지</tspan></text>
  </g>
</svg>
