<svg id="구성_요소_30_1" data-name="구성 요소 30 – 1" xmlns="http://www.w3.org/2000/svg" width="14" height="20" viewBox="0 0 14 20">
  <g id="합치기_1" data-name="합치기 1" fill="none">
    <path d="M.583,9.189H.635A6.066,6.066,0,0,1,0,6.487,6.758,6.758,0,0,1,7,0a6.758,6.758,0,0,1,7,6.487,6.066,6.066,0,0,1-.635,2.7h.051L7,20Z" stroke="none"/>
    <path d="M 7 1 C 3.691590309143066 1 1 3.461399078369141 1 6.486869812011719 C 1 7.274499893188477 1.178560256958008 8.034390449523926 1.530710220336914 8.745439529418945 L 1.772223472595215 9.233090400695801 L 7.000003337860107 18.04079437255859 L 12.22783946990967 9.233064651489258 L 12.46934032440186 8.745439529418945 C 12.82145977020264 8.034460067749023 13 7.27455997467041 13 6.486869812011719 C 13 3.461399078369141 10.30840969085693 1 7 1 M 7 0 C 10.86623001098633 0 14 2.904359817504883 14 6.486869812011719 C 14 7.45127010345459 13.77291011810303 8.366550445556641 13.36546039581299 9.189249992370605 L 13.41672992706299 9.189249992370605 L 7 20 L 0.5833196640014648 9.189249992370605 L 0.6345901489257812 9.189249992370605 C 0.2271404266357422 8.366550445556641 0 7.45127010345459 0 6.486869812011719 C 0 2.904359817504883 3.133830070495605 0 7 0 Z" stroke="none" fill="#fff"/>
  </g>
  <g id="타원_16" data-name="타원 16" transform="translate(4 3)" fill="none" stroke="#fff" stroke-width="1">
    <circle cx="3" cy="3" r="3" stroke="none"/>
    <circle cx="3" cy="3" r="2.5" fill="none"/>
  </g>
</svg>
