<svg xmlns="http://www.w3.org/2000/svg" width="18.011" height="18" viewBox="0 0 18.011 18">
  <g id="_이어_1-2" transform="translate(0.004 0.001)">
    <path id="패스_886" data-name="패스 886" d="M17.715,16.357l-4.029-4.029-.042-.04A7.625,7.625,0,1,0,9.876,14.9a.862.862,0,0,0,.339-1.432h0A1.187,1.187,0,0,0,9.08,13.14a5.707,5.707,0,0,1-5.734-1.729,5.959,5.959,0,0,1,.008-7.6,5.717,5.717,0,1,1,8.31,7.849l-.008.008A.936.936,0,0,0,11.639,13l.646.646.011-.008c.013.016.026.029.04.042l4.042,4.042a.953.953,0,1,0,1.334-1.361Z" fill="#acacac" fill-rule="evenodd"/>
  </g>
</svg>
